<svg width="16" height="16" viewBox="0 0 16 16" fill="none" xmlns="http://www.w3.org/2000/svg">
<path d="M7.246 11.0872C7.20733 11.0495 7.042 10.9073 6.906 10.7748C6.05067 9.99804 4.65067 7.97174 4.22333 6.91118C4.15467 6.75011 4.00933 6.3429 4 6.12533C4 5.91686 4.048 5.71813 4.14533 5.52848C4.28133 5.29208 4.49533 5.10244 4.748 4.99853C4.92333 4.93163 5.448 4.82772 5.45733 4.82772C6.03133 4.72381 6.964 4.66666 7.99467 4.66666C8.97667 4.66666 9.87133 4.72381 10.454 4.80889C10.4633 4.81863 11.1153 4.92254 11.3387 5.0362C11.7467 5.24467 12 5.65188 12 6.08767V6.12533C11.99 6.40915 11.7367 7.006 11.7273 7.006C11.2993 8.00941 9.968 9.98895 9.08333 10.7845C9.08333 10.7845 8.856 11.0086 8.714 11.106C8.51 11.258 8.25733 11.3333 8.00467 11.3333C7.72267 11.3333 7.46 11.2482 7.246 11.0872Z" fill="black"/>
</svg>
