<svg width="20" height="20" viewBox="0 0 20 20" fill="none" xmlns="http://www.w3.org/2000/svg">
<path d="M10 0.833344C8.18701 0.833344 6.41472 1.37096 4.90727 2.37821C3.39982 3.38545 2.22491 4.81709 1.53111 6.49208C0.837304 8.16707 0.655773 10.0102 1.00947 11.7883C1.36317 13.5665 2.23621 15.1998 3.51819 16.4818C4.80017 17.7638 6.43351 18.6368 8.21167 18.9905C9.98983 19.3442 11.8329 19.1627 13.5079 18.4689C15.1829 17.7751 16.6146 16.6002 17.6218 15.0927C18.629 13.5853 19.1667 11.813 19.1667 10C19.1639 7.56972 18.1972 5.23977 16.4787 3.5213C14.7602 1.80282 12.4303 0.836152 10 0.833344V0.833344ZM13.5256 10.7051H10.7051V13.5256C10.7051 13.7127 10.6308 13.892 10.4986 14.0242C10.3664 14.1565 10.187 14.2308 10 14.2308C9.81299 14.2308 9.63364 14.1565 9.5014 14.0242C9.36916 13.892 9.29487 13.7127 9.29487 13.5256V10.7051H6.47436C6.28735 10.7051 6.108 10.6308 5.97576 10.4986C5.84352 10.3664 5.76923 10.187 5.76923 10C5.76923 9.813 5.84352 9.63364 5.97576 9.50141C6.108 9.36917 6.28735 9.29488 6.47436 9.29488H9.29487V6.47437C9.29487 6.28736 9.36916 6.108 9.5014 5.97577C9.63364 5.84353 9.81299 5.76924 10 5.76924C10.187 5.76924 10.3664 5.84353 10.4986 5.97577C10.6308 6.108 10.7051 6.28736 10.7051 6.47437V9.29488H13.5256C13.7127 9.29488 13.892 9.36917 14.0242 9.50141C14.1565 9.63364 14.2308 9.813 14.2308 10C14.2308 10.187 14.1565 10.3664 14.0242 10.4986C13.892 10.6308 13.7127 10.7051 13.5256 10.7051Z" fill="white"/>
</svg>
