<svg width="21" height="22" viewBox="0 0 21 22" fill="none" xmlns="http://www.w3.org/2000/svg">
<path d="M9.23975 10.529H11.2085" stroke="#A2A9CB" stroke-width="2" stroke-linecap="round" stroke-linejoin="round"/>
<path d="M18.2697 11.054C15.8762 12.4591 13.1591 13.1969 10.394 13.1925C7.62933 13.1969 4.91268 12.4594 2.51953 11.0548" stroke="#A2A9CB" stroke-width="2" stroke-linecap="round" stroke-linejoin="round"/>
<path d="M14.1226 6.53368V5.2019C14.1226 4.84869 13.9843 4.50995 13.7381 4.26019C13.492 4.01043 13.1582 3.87012 12.8101 3.87012H8.87256C8.52446 3.87012 8.19062 4.01043 7.94448 4.26019C7.69834 4.50995 7.56006 4.84869 7.56006 5.2019V6.53368" stroke="#A2A9CB" stroke-width="2" stroke-linecap="round" stroke-linejoin="round"/>
<path d="M17.6138 6.53366H3.17627C2.81383 6.53366 2.52002 6.83179 2.52002 7.19955V17.8538C2.52002 18.2216 2.81383 18.5197 3.17627 18.5197H17.6138C17.9762 18.5197 18.27 18.2216 18.27 17.8538V7.19955C18.27 6.83179 17.9762 6.53366 17.6138 6.53366Z" stroke="#A2A9CB" stroke-width="2" stroke-linecap="round" stroke-linejoin="round"/>
</svg>
