<svg width="149" height="38" viewBox="0 0 149 38" fill="none" xmlns="http://www.w3.org/2000/svg">
<path d="M59.172 33.0137H55.932V15.4068H59.172V33.0137Z" fill="#1156DD"/>
<path d="M65.9318 22.055C66.1798 21.8034 66.4398 21.572 66.7118 21.361C66.9918 21.1418 67.2838 20.9592 67.5878 20.8131C67.8998 20.6588 68.2318 20.5411 68.5838 20.4599C68.9358 20.3707 69.3198 20.326 69.7358 20.326C70.4078 20.326 71.0038 20.4437 71.5238 20.6791C72.0438 20.9064 72.4758 21.2311 72.8198 21.6532C73.1718 22.0672 73.4358 22.5664 73.6118 23.1509C73.7958 23.7273 73.8878 24.3645 73.8878 25.0626V33.0137H70.9238V25.0626C70.9238 24.2995 70.7518 23.711 70.4078 23.297C70.0638 22.8749 69.5398 22.6639 68.8358 22.6639C68.3238 22.6639 67.8438 22.7816 67.3958 23.017C66.9478 23.2524 66.5238 23.573 66.1238 23.9789V33.0137H63.1598V20.5208H64.9718C65.3558 20.5208 65.6078 20.7035 65.7278 21.0688L65.9318 22.055Z" fill="#1156DD"/>
<path d="M84.977 22.9561C84.897 23.086 84.813 23.1793 84.725 23.2361C84.637 23.2848 84.525 23.3092 84.389 23.3092C84.245 23.3092 84.089 23.2686 83.921 23.1874C83.761 23.1063 83.573 23.017 83.357 22.9196C83.141 22.814 82.893 22.7207 82.613 22.6395C82.341 22.5583 82.017 22.5177 81.641 22.5177C81.057 22.5177 80.597 22.6436 80.261 22.8952C79.933 23.1468 79.769 23.4756 79.769 23.8815C79.769 24.1494 79.853 24.3767 80.021 24.5634C80.197 24.7419 80.425 24.9002 80.705 25.0382C80.993 25.1762 81.317 25.3021 81.677 25.4157C82.037 25.5212 82.401 25.6389 82.769 25.7688C83.145 25.8987 83.513 26.0489 83.873 26.2193C84.233 26.3817 84.553 26.5927 84.833 26.8525C85.121 27.1041 85.349 27.4086 85.517 27.7657C85.693 28.1229 85.781 28.5531 85.781 29.0564C85.781 29.6571 85.673 30.2132 85.457 30.7246C85.249 31.2279 84.937 31.6662 84.521 32.0396C84.105 32.4049 83.589 32.6931 82.973 32.9041C82.365 33.1071 81.661 33.2085 80.861 33.2085C80.437 33.2085 80.021 33.1679 79.613 33.0868C79.213 33.0137 78.825 32.9082 78.449 32.7702C78.081 32.6322 77.737 32.4698 77.417 32.2831C77.105 32.0964 76.829 31.8935 76.589 31.6743L77.273 30.5297C77.361 30.3917 77.465 30.2862 77.585 30.2132C77.705 30.1401 77.857 30.1036 78.041 30.1036C78.225 30.1036 78.397 30.1563 78.557 30.2619C78.725 30.3674 78.917 30.481 79.133 30.6028C79.349 30.7246 79.601 30.8382 79.889 30.9437C80.185 31.0493 80.557 31.102 81.005 31.102C81.357 31.102 81.657 31.0614 81.905 30.9803C82.161 30.891 82.369 30.7773 82.529 30.6393C82.697 30.5013 82.817 30.343 82.889 30.1645C82.969 29.9778 83.009 29.787 83.009 29.5922C83.009 29.2999 82.921 29.0605 82.745 28.8738C82.577 28.6871 82.349 28.5247 82.061 28.3867C81.781 28.2487 81.457 28.127 81.089 28.0214C80.729 27.9078 80.357 27.786 79.973 27.6561C79.597 27.5263 79.225 27.3761 78.857 27.2056C78.497 27.027 78.173 26.8038 77.885 26.5359C77.605 26.268 77.377 25.9393 77.201 25.5496C77.033 25.16 76.949 24.6892 76.949 24.1372C76.949 23.6258 77.049 23.1387 77.249 22.676C77.449 22.2133 77.741 21.8115 78.125 21.4706C78.517 21.1215 79.001 20.8455 79.577 20.6426C80.161 20.4315 80.833 20.326 81.593 20.326C82.441 20.326 83.213 20.4681 83.909 20.7522C84.605 21.0363 85.185 21.4097 85.649 21.8724L84.977 22.9561Z" fill="#1156DD"/>
<path d="M92.8741 33.2085C91.8021 33.2085 90.9781 32.9041 90.4021 32.2953C89.8341 31.6784 89.5501 30.8301 89.5501 29.7505V22.7734H88.2901C88.1301 22.7734 87.9941 22.7207 87.8821 22.6151C87.7701 22.5096 87.7141 22.3513 87.7141 22.1403V20.947L89.6941 20.6182L90.3181 17.2089C90.3581 17.0465 90.4341 16.9207 90.5461 16.8314C90.6581 16.7421 90.8021 16.6975 90.9781 16.6975H92.5141V20.6304H95.8021V22.7734H92.5141V29.5435C92.5141 29.9331 92.6061 30.2375 92.7901 30.4567C92.9821 30.6759 93.2421 30.7854 93.5701 30.7854C93.7541 30.7854 93.9061 30.7652 94.0261 30.7246C94.1541 30.6759 94.2621 30.6272 94.3501 30.5785C94.4461 30.5297 94.5301 30.4851 94.6021 30.4445C94.6741 30.3958 94.7461 30.3715 94.8181 30.3715C94.9061 30.3715 94.9781 30.3958 95.0341 30.4445C95.0901 30.4851 95.1501 30.55 95.2141 30.6393L96.1021 32.1005C95.6701 32.4658 95.1741 32.7418 94.6141 32.9285C94.0541 33.1152 93.4741 33.2085 92.8741 33.2085Z" fill="#1156DD"/>
<path d="M104.962 27.6805C104.106 27.7211 103.386 27.7982 102.802 27.9118C102.218 28.0174 101.75 28.1554 101.398 28.3258C101.046 28.4963 100.794 28.6952 100.642 28.9225C100.49 29.1498 100.414 29.3973 100.414 29.6652C100.414 30.1929 100.566 30.5703 100.87 30.7976C101.182 31.0249 101.586 31.1386 102.082 31.1386C102.69 31.1386 103.214 31.029 103.654 30.8098C104.102 30.5825 104.538 30.2416 104.962 29.787V27.6805ZM98.1701 22.262C99.5861 20.947 101.29 20.2895 103.282 20.2895C104.002 20.2895 104.646 20.4112 105.214 20.6548C105.782 20.8902 106.262 21.223 106.654 21.6532C107.046 22.0753 107.342 22.5827 107.542 23.1753C107.75 23.7678 107.854 24.4172 107.854 25.1235V33.0137H106.51C106.23 33.0137 106.014 32.9731 105.862 32.8919C105.71 32.8027 105.59 32.6281 105.502 32.3684L105.238 31.4673C104.926 31.7514 104.622 32.0031 104.326 32.2222C104.03 32.4333 103.722 32.6119 103.402 32.758C103.082 32.9041 102.738 33.0137 102.37 33.0868C102.01 33.1679 101.61 33.2085 101.17 33.2085C100.65 33.2085 100.17 33.1395 99.7301 33.0015C99.2901 32.8554 98.9101 32.6403 98.5901 32.3562C98.2701 32.0721 98.0221 31.719 97.8461 31.2969C97.6701 30.8747 97.5821 30.3836 97.5821 29.8235C97.5821 29.5069 97.6341 29.1944 97.7381 28.8859C97.8421 28.5694 98.0101 28.269 98.2421 27.9849C98.4821 27.7008 98.7901 27.4329 99.1661 27.1813C99.5421 26.9296 100.002 26.7104 100.546 26.5237C101.098 26.337 101.738 26.1869 102.466 26.0732C103.194 25.9515 104.026 25.8784 104.962 25.854V25.1235C104.962 24.2874 104.786 23.6704 104.434 23.2727C104.082 22.8668 103.574 22.6639 102.91 22.6639C102.43 22.6639 102.03 22.7207 101.71 22.8343C101.398 22.948 101.122 23.0778 100.882 23.224C100.642 23.362 100.422 23.4878 100.222 23.6014C100.03 23.7151 99.8141 23.7719 99.5741 23.7719C99.3661 23.7719 99.1901 23.7191 99.0461 23.6136C98.9021 23.5 98.7861 23.3701 98.6981 23.224L98.1701 22.262Z" fill="#1156DD"/>
<path d="M114.176 22.055C114.424 21.8034 114.684 21.572 114.956 21.361C115.236 21.1418 115.528 20.9592 115.832 20.8131C116.144 20.6588 116.476 20.5411 116.828 20.4599C117.18 20.3707 117.564 20.326 117.98 20.326C118.652 20.326 119.248 20.4437 119.768 20.6791C120.288 20.9064 120.72 21.2311 121.064 21.6532C121.416 22.0672 121.68 22.5664 121.856 23.1509C122.04 23.7273 122.132 24.3645 122.132 25.0626V33.0137H119.168V25.0626C119.168 24.2995 118.996 23.711 118.652 23.297C118.308 22.8749 117.784 22.6639 117.08 22.6639C116.568 22.6639 116.088 22.7816 115.64 23.017C115.192 23.2524 114.768 23.573 114.368 23.9789V33.0137H111.404V20.5208H113.216C113.6 20.5208 113.852 20.7035 113.972 21.0688L114.176 22.055Z" fill="#1156DD"/>
<path d="M134.529 23.1631C134.441 23.2767 134.353 23.366 134.265 23.431C134.185 23.4959 134.065 23.5284 133.905 23.5284C133.753 23.5284 133.605 23.4837 133.461 23.3944C133.317 23.297 133.145 23.1915 132.945 23.0779C132.745 22.9561 132.505 22.8506 132.225 22.7613C131.953 22.6639 131.613 22.6151 131.205 22.6151C130.685 22.6151 130.229 22.7126 129.837 22.9074C129.445 23.0941 129.117 23.366 128.853 23.7232C128.597 24.0804 128.405 24.5147 128.277 25.0261C128.149 25.5293 128.085 26.1016 128.085 26.7429C128.085 27.4086 128.153 28.0011 128.289 28.5207C128.433 29.0402 128.637 29.4785 128.901 29.8357C129.165 30.1847 129.485 30.4526 129.861 30.6393C130.237 30.8179 130.661 30.9072 131.133 30.9072C131.605 30.9072 131.985 30.8504 132.273 30.7367C132.569 30.615 132.817 30.4851 133.017 30.3471C133.217 30.201 133.389 30.0711 133.533 29.9575C133.685 29.8357 133.853 29.7748 134.037 29.7748C134.277 29.7748 134.457 29.8682 134.577 30.0549L135.429 31.1507C135.101 31.5404 134.745 31.8691 134.361 32.137C133.977 32.3968 133.577 32.6078 133.161 32.7702C132.753 32.9244 132.329 33.034 131.889 33.0989C131.457 33.1639 131.025 33.1964 130.593 33.1964C129.833 33.1964 129.117 33.0543 128.445 32.7702C127.773 32.478 127.185 32.0558 126.681 31.5038C126.177 30.9519 125.777 30.2781 125.481 29.4826C125.193 28.6789 125.049 27.7657 125.049 26.7429C125.049 25.8256 125.177 24.9774 125.433 24.1981C125.697 23.4107 126.081 22.7329 126.585 22.1646C127.089 21.5883 127.713 21.1378 128.457 20.8131C129.201 20.4884 130.057 20.326 131.025 20.326C131.945 20.326 132.749 20.4762 133.437 20.7765C134.133 21.0769 134.757 21.5071 135.309 22.0672L134.529 23.1631Z" fill="#1156DD"/>
<path d="M145.767 25.3305C145.767 24.9408 145.711 24.5755 145.599 24.2346C145.495 23.8855 145.335 23.5811 145.119 23.3214C144.903 23.0616 144.627 22.8587 144.291 22.7126C143.963 22.5583 143.579 22.4812 143.139 22.4812C142.283 22.4812 141.607 22.7288 141.111 23.224C140.623 23.7191 140.311 24.4213 140.175 25.3305H145.767ZM140.115 27.1447C140.163 27.786 140.275 28.3421 140.451 28.8129C140.627 29.2756 140.859 29.6612 141.147 29.9696C141.435 30.27 141.775 30.4973 142.167 30.6515C142.567 30.7976 143.007 30.8707 143.487 30.8707C143.967 30.8707 144.379 30.8139 144.723 30.7002C145.075 30.5866 145.379 30.4607 145.635 30.3227C145.899 30.1847 146.127 30.0589 146.319 29.9453C146.519 29.8316 146.711 29.7748 146.895 29.7748C147.143 29.7748 147.327 29.8682 147.447 30.0549L148.299 31.1507C147.971 31.5404 147.603 31.8691 147.195 32.137C146.787 32.3968 146.359 32.6078 145.911 32.7702C145.471 32.9244 145.019 33.034 144.555 33.0989C144.099 33.1639 143.655 33.1964 143.223 33.1964C142.367 33.1964 141.571 33.0543 140.835 32.7702C140.099 32.478 139.459 32.0518 138.915 31.4917C138.371 30.9234 137.943 30.2253 137.631 29.3973C137.319 28.5612 137.163 27.5953 137.163 26.4994C137.163 25.647 137.299 24.8475 137.571 24.1007C137.843 23.3457 138.231 22.6923 138.735 22.1403C139.247 21.5802 139.867 21.1378 140.595 20.8131C141.331 20.4884 142.159 20.326 143.079 20.326C143.855 20.326 144.571 20.4518 145.227 20.7035C145.883 20.9551 146.447 21.3245 146.919 21.8115C147.391 22.2904 147.759 22.883 148.023 23.5893C148.295 24.2874 148.431 25.0869 148.431 25.988C148.431 26.4426 148.383 26.751 148.287 26.9134C148.191 27.0676 148.007 27.1447 147.735 27.1447H140.115Z" fill="#1156DD"/>
<path d="M9.78949 4.28481C9.78949 6.35103 8.08259 8.02604 5.97702 8.02604C3.87145 8.02604 2.16455 6.35103 2.16455 4.28481C2.16455 2.21859 3.87145 0.543579 5.97702 0.543579C8.08259 0.543579 9.78949 2.21859 9.78949 4.28481Z" fill="#1156DD"/>
<path d="M0 13.0391C0 11.5906 1.15729 10.4163 2.58489 10.4163H3.39656C10.1184 10.4163 15.5676 15.9455 15.5676 22.7661V33.9008C15.5676 35.6525 14.1681 37.0725 12.4418 37.0725C10.7155 37.0725 9.31603 35.6525 9.31603 33.9008V22.2524C9.31603 18.7937 6.55279 15.9898 3.14416 15.9898H2.908C1.30195 15.9898 0 14.6688 0 13.0391Z" fill="#1156DD"/>
<path d="M9.72974 23.7444C9.72974 16.3835 15.6105 10.4163 22.8649 10.4163C30.1192 10.4163 36 16.3835 36 23.7444V33.9828C36 35.6892 34.6367 37.0725 32.9551 37.0725C31.2734 37.0725 29.9101 35.6892 29.9101 33.9828V23.9441C29.9101 20.0963 26.836 16.9771 23.044 16.9771C19.252 16.9771 16.1779 20.0963 16.1779 23.9441V33.8011C16.1779 35.6079 14.7344 37.0725 12.9538 37.0725C11.1732 37.0725 9.72974 35.6079 9.72974 33.8011V23.7444Z" fill="#1156DD"/>
</svg>
