<svg width="29" height="28" viewBox="0 0 29 28" fill="none" xmlns="http://www.w3.org/2000/svg">
<path d="M13.3237 0.13678C16.6337 0.13678 19.3334 2.8291 19.3334 6.14376V12.6243H11.1938C10.6105 12.6243 10.1492 13.0843 10.1492 13.666C10.1492 14.2342 10.6105 14.7078 11.1938 14.7078H19.3334V21.1747C19.3334 24.4894 16.6337 27.1952 13.2965 27.1952H6.68994C3.3663 27.1952 0.666687 24.5029 0.666687 21.1883V6.15729C0.666687 2.8291 3.37987 0.13678 6.70351 0.13678H13.3237ZM22.7203 8.9987C23.1203 8.57929 23.7736 8.57929 24.1736 8.98517L28.067 12.9222C28.267 13.1251 28.3736 13.3822 28.3736 13.6663C28.3736 13.9369 28.267 14.2075 28.067 14.3969L24.1736 18.3339C23.9736 18.5368 23.707 18.645 23.4536 18.645C23.187 18.645 22.9203 18.5368 22.7203 18.3339C22.3203 17.928 22.3203 17.2651 22.7203 16.8592L24.8536 14.708H19.3336V12.6245H24.8536L22.7203 10.4734C22.3203 10.0675 22.3203 9.40457 22.7203 8.9987Z" fill="#FF4842"/>
</svg>
