<svg width="19" height="20" viewBox="0 0 19 20" fill="none" xmlns="http://www.w3.org/2000/svg">
<path d="M17.4167 7.38572V3.73875C17.4167 2.6061 16.91 2.14822 15.6512 2.14822H12.4529C11.1942 2.14822 10.6875 2.6061 10.6875 3.73875V7.37769C10.6875 8.51837 11.1942 8.96822 12.4529 8.96822H15.6512C16.91 8.97625 17.4167 8.51837 17.4167 7.38572Z" stroke="white" stroke-width="1.5" stroke-linecap="round" stroke-linejoin="round"/>
<path d="M17.4167 16.4228V13.1775C17.4167 11.9002 16.91 11.3861 15.6512 11.3861H12.4529C11.1942 11.3861 10.6875 11.9002 10.6875 13.1775V16.4228C10.6875 17.7001 11.1942 18.2142 12.4529 18.2142H15.6512C16.91 18.2142 17.4167 17.7001 17.4167 16.4228Z" stroke="white" stroke-width="1.5" stroke-linecap="round" stroke-linejoin="round"/>
<path d="M8.31248 7.38572V3.73875C8.31248 2.6061 7.80581 2.14822 6.54706 2.14822H3.34873C2.08998 2.14822 1.58331 2.6061 1.58331 3.73875V7.37769C1.58331 8.51837 2.08998 8.96822 3.34873 8.96822H6.54706C7.80581 8.97625 8.31248 8.51837 8.31248 7.38572Z" stroke="white" stroke-width="1.5" stroke-linecap="round" stroke-linejoin="round"/>
<path d="M8.31248 16.4228V13.1775C8.31248 11.9002 7.80581 11.3861 6.54706 11.3861H3.34873C2.08998 11.3861 1.58331 11.9002 1.58331 13.1775V16.4228C1.58331 17.7001 2.08998 18.2142 3.34873 18.2142H6.54706C7.80581 18.2142 8.31248 17.7001 8.31248 16.4228Z" stroke="white" stroke-width="1.5" stroke-linecap="round" stroke-linejoin="round"/>
</svg>
