<svg width="21" height="22" viewBox="0 0 21 22" fill="none" xmlns="http://www.w3.org/2000/svg">
<path d="M10.5 9.60265C11.0437 9.60265 11.4844 9.15546 11.4844 8.60382C11.4844 8.05218 11.0437 7.60498 10.5 7.60498C9.95634 7.60498 9.51562 8.05218 9.51562 8.60382C9.51562 9.15546 9.95634 9.60265 10.5 9.60265Z" fill="#B8BED9"/>
<path d="M14.8912 9.82231L17.5123 13.0138C17.5766 13.092 17.6223 13.1841 17.6459 13.2831C17.6696 13.382 17.6706 13.4852 17.6488 13.5846L16.6347 18.2153C16.6105 18.3256 16.559 18.428 16.4851 18.5126C16.4111 18.5972 16.3172 18.6613 16.2121 18.6989C16.107 18.7364 15.9942 18.7462 15.8843 18.7273C15.7744 18.7084 15.6711 18.6614 15.5841 18.5908L13.125 16.5946" stroke="#B8BED9" stroke-width="2" stroke-linecap="round" stroke-linejoin="round"/>
<path d="M6.05925 9.88243L3.48755 13.0138C3.42332 13.092 3.37761 13.1841 3.35395 13.2831C3.33029 13.382 3.32931 13.4852 3.35108 13.5845L4.36522 18.2152C4.3894 18.3256 4.44088 18.428 4.51481 18.5126C4.58874 18.5972 4.68269 18.6613 4.7878 18.6989C4.89291 18.7364 5.00572 18.7462 5.11559 18.7273C5.22546 18.7084 5.32878 18.6614 5.4158 18.5908L7.87488 16.5946" stroke="#B8BED9" stroke-width="2" stroke-linecap="round" stroke-linejoin="round"/>
<path d="M10.0875 2.25835C8.52949 3.52472 3.31855 8.58508 7.87503 16.5948H13.125C17.5868 8.59075 12.4521 3.53188 10.9104 2.26105C10.7942 2.1652 10.6492 2.11265 10.4994 2.11216C10.3497 2.11167 10.2043 2.16326 10.0875 2.25835V2.25835Z" stroke="#B8BED9" stroke-width="2" stroke-linecap="round" stroke-linejoin="round"/>
<path d="M11.8125 19.2581H9.1875" stroke="#B8BED9" stroke-width="2" stroke-linecap="round" stroke-linejoin="round"/>
</svg>
